<svg id="Layer_1" data-name="Layer 1" xmlns="http://www.w3.org/2000/svg" viewBox="0 0 500 500"><defs><style>.cls-1{fill:#faa961;}.cls-2{fill:#f79131;}.cls-3{fill:#ffe5c7;}</style></defs><title>familyReconnect</title><rect class="cls-1" width="500" height="185.43"/><rect class="cls-1" y="314.57" width="500" height="185.43"/><rect class="cls-2" y="185.43" width="500" height="129.14"/><path class="cls-3" d="M102.4,250.62h8.93v5.6H87.19v-7.85a16.08,16.08,0,0,1,.54-4.47,8.32,8.32,0,0,1,1.5-3,5.65,5.65,0,0,1,2.27-1.7,7.38,7.38,0,0,1,2.85-.53,7.68,7.68,0,0,1,2.22.31,6.53,6.53,0,0,1,1.93.94,7.1,7.1,0,0,1,1.58,1.52,8,8,0,0,1,1.15,2.08,5.43,5.43,0,0,1,.69-1,4.18,4.18,0,0,1,1-.85l8.4-5.14v5.07a2.14,2.14,0,0,1-1.06,2l-7,4a1.66,1.66,0,0,0-.66.62,2.11,2.11,0,0,0-.2,1Zm-3.86,0v-2.25a5.57,5.57,0,0,0-.29-2,3.46,3.46,0,0,0-.8-1.32,3,3,0,0,0-1.2-.74,4.48,4.48,0,0,0-1.49-.24,3.11,3.11,0,0,0-2.48,1,4.81,4.81,0,0,0-.9,3.21v2.25Z"/><path class="cls-3" d="M87.19,218.64H91.5v9.91h5.63V221h4.15v7.59H107v-9.91h4.31v15.54H87.19Z"/><path class="cls-3" d="M155.16,253a.25.25,0,0,1,.21.09l.27.24a22.4,22.4,0,0,1-2.85,2.37,18.21,18.21,0,0,1-3.34,1.84,20,20,0,0,1-4,1.21,24.51,24.51,0,0,1-4.8.44,20.15,20.15,0,0,1-7.85-1.5,17.77,17.77,0,0,1-6.22-4.3,19.68,19.68,0,0,1-4.1-6.81,26.3,26.3,0,0,1-1.46-9,25.58,25.58,0,0,1,1.46-8.82,20,20,0,0,1,4.14-6.84,18.42,18.42,0,0,1,6.4-4.41,21.15,21.15,0,0,1,8.24-1.56,25.74,25.74,0,0,1,4.13.31,16.78,16.78,0,0,1,3.45.92,16.33,16.33,0,0,1,3,1.55,31.1,31.1,0,0,1,2.92,2.18l-.09.15a.35.35,0,0,1-.28.15,1.17,1.17,0,0,1-.64-.35c-.28-.23-.64-.52-1.09-.86s-1-.71-1.68-1.12a13.74,13.74,0,0,0-2.39-1.11,19,19,0,0,0-3.21-.86,21.65,21.65,0,0,0-4.15-.35A20.69,20.69,0,0,0,133.4,218a17.49,17.49,0,0,0-6.16,4.2,19.23,19.23,0,0,0-4,6.63,25.06,25.06,0,0,0-1.45,8.73,25.34,25.34,0,0,0,1.44,8.82,19.35,19.35,0,0,0,4,6.62,17.06,17.06,0,0,0,6,4.15,19.27,19.27,0,0,0,7.5,1.43,26.39,26.39,0,0,0,4.59-.36,17.4,17.4,0,0,0,3.7-1.06,15.8,15.8,0,0,0,3.11-1.7,30.81,30.81,0,0,0,2.86-2.31A.41.41,0,0,1,155.16,253Z"/><path class="cls-3" d="M203.43,237.59a26.39,26.39,0,0,1-1.44,9,19.52,19.52,0,0,1-4,6.78,17.37,17.37,0,0,1-6.18,4.29,20.47,20.47,0,0,1-8,1.5,20.26,20.26,0,0,1-7.9-1.5,17.38,17.38,0,0,1-6.16-4.29,19.52,19.52,0,0,1-4-6.78,28.78,28.78,0,0,1,0-18,19.79,19.79,0,0,1,4-6.82,17.72,17.72,0,0,1,6.16-4.32,20.26,20.26,0,0,1,7.9-1.51,20.47,20.47,0,0,1,8,1.5,17.52,17.52,0,0,1,6.18,4.3,19.84,19.84,0,0,1,4,6.81A26.55,26.55,0,0,1,203.43,237.59Zm-.79,0a26.6,26.6,0,0,0-1.37-8.82,19.14,19.14,0,0,0-3.85-6.61,16.47,16.47,0,0,0-5.94-4.16,19.86,19.86,0,0,0-7.63-1.43A19.6,19.6,0,0,0,176.3,218a16.61,16.61,0,0,0-5.93,4.16,19.39,19.39,0,0,0-3.9,6.61,28.45,28.45,0,0,0,0,17.63,19.35,19.35,0,0,0,3.9,6.58,16.81,16.81,0,0,0,5.93,4.14,19.42,19.42,0,0,0,7.55,1.43,19.68,19.68,0,0,0,7.63-1.43,16.67,16.67,0,0,0,5.94-4.14,19.09,19.09,0,0,0,3.85-6.58A26.49,26.49,0,0,0,202.64,237.59Z"/><path class="cls-3" d="M215.87,216.69l29.93,40.75a1.66,1.66,0,0,1,0-.32V216.45h.61v42.28h-.18a.42.42,0,0,1-.33-.21l-30.09-40.93a2.43,2.43,0,0,1,0,.38v40.76h-.6V216.45h.24A.47.47,0,0,1,215.87,216.69Z"/><path class="cls-3" d="M261.54,216.69l29.93,40.75a1.66,1.66,0,0,1,0-.32V216.45h.61v42.28h-.18a.4.4,0,0,1-.33-.21l-30.09-40.93a2.43,2.43,0,0,1,0,.38v40.76h-.6V216.45h.24A.47.47,0,0,1,261.54,216.69Z"/><path class="cls-3" d="M331.26,216.45v.66h-24v19.82h20.36v.66H307.27v20.48h24l-.05.66H306.55V216.45Z"/><path class="cls-3" d="M374.33,253a.25.25,0,0,1,.21.09l.27.24a23.88,23.88,0,0,1-2.85,2.37,18.21,18.21,0,0,1-3.34,1.84,20,20,0,0,1-4,1.21,24.51,24.51,0,0,1-4.8.44,20.15,20.15,0,0,1-7.85-1.5,17.8,17.8,0,0,1-6.23-4.3,19.81,19.81,0,0,1-4.09-6.81,26.06,26.06,0,0,1-1.47-9,25.34,25.34,0,0,1,1.47-8.82,20,20,0,0,1,4.14-6.84,18.33,18.33,0,0,1,6.4-4.41,21.14,21.14,0,0,1,8.23-1.56,25.87,25.87,0,0,1,4.14.31,16.62,16.62,0,0,1,6.48,2.47,29.77,29.77,0,0,1,2.91,2.18l-.09.15a.34.34,0,0,1-.27.15,1.22,1.22,0,0,1-.65-.35c-.27-.23-.63-.52-1.09-.86s-1-.71-1.67-1.12a14.1,14.1,0,0,0-2.39-1.11,19.12,19.12,0,0,0-3.22-.86,21.58,21.58,0,0,0-4.15-.35,20.73,20.73,0,0,0-7.87,1.46,17.58,17.58,0,0,0-6.16,4.2,19.37,19.37,0,0,0-4,6.63,24.83,24.83,0,0,0-1.45,8.73,25.34,25.34,0,0,0,1.44,8.82,19.35,19.35,0,0,0,4,6.62,17.12,17.12,0,0,0,6,4.15,19.36,19.36,0,0,0,7.51,1.43,26.39,26.39,0,0,0,4.59-.36,17.4,17.4,0,0,0,3.7-1.06,16.09,16.09,0,0,0,3.11-1.7,30.81,30.81,0,0,0,2.86-2.31A.41.41,0,0,1,374.33,253Z"/><path class="cls-3" d="M412.81,216.45v.66H396.92v41.62h-.73V217.11h-16v-.66Z"/><line class="cls-3" x1="89.46" y1="267.24" x2="412.17" y2="267.24"/><line class="cls-3" x1="87.62" y1="267.24" x2="410.33" y2="267.24"/><rect class="cls-3" x="87.62" y="266.78" width="322.7" height="0.92"/><path class="cls-3" d="M94.66,283.94H94v-4.13H88.64v4.13H88v-8.61h.63v4H94v-4h.63Z"/><path class="cls-3" d="M105.28,275.33v.52h-4.53v3.47h3.77v.51h-3.77v3.59h4.53v.52h-5.16v-8.61Z"/><path class="cls-3" d="M110.84,283.41h4.09v.53h-4.71v-8.61h.62Z"/><path class="cls-3" d="M120.16,280.47v3.47h-.62v-8.61h2.22a3.46,3.46,0,0,1,2.29.66,2.36,2.36,0,0,1,.77,1.89,2.51,2.51,0,0,1-.21,1,2.35,2.35,0,0,1-.61.82,2.79,2.79,0,0,1-1,.54,3.91,3.91,0,0,1-1.28.19Zm0-.5h1.6a3,3,0,0,0,1-.16,2.3,2.3,0,0,0,.77-.43,1.88,1.88,0,0,0,.48-.67,2.05,2.05,0,0,0,.17-.83,1.9,1.9,0,0,0-.62-1.52,2.66,2.66,0,0,0-1.82-.54h-1.6Z"/><path class="cls-3" d="M130.34,283.94h-.63v-8.61h.63Z"/><path class="cls-3" d="M136.48,275.35s.06,0,.1.09l5.57,7.46c0-.12,0-.24,0-.35v-7.22h.54v8.61h-.29a.27.27,0,0,1-.23-.12l-5.6-7.48c0,.13,0,.24,0,.35v7.25H136v-8.61h.3A.3.3,0,0,1,136.48,275.35Z"/><path class="cls-3" d="M151.85,283.53a5.1,5.1,0,0,0,.81,0,3.56,3.56,0,0,0,.68-.13,5.14,5.14,0,0,0,.59-.22q.28-.13.57-.3v-2.32h-1.65a.17.17,0,0,1-.12,0,.13.13,0,0,1,0-.1V280h2.38v3.06a6.68,6.68,0,0,1-.67.41,5,5,0,0,1-1.6.47,7.43,7.43,0,0,1-1,.07,4.44,4.44,0,0,1-1.7-.32,3.58,3.58,0,0,1-1.32-.89,3.85,3.85,0,0,1-.86-1.39,5.61,5.61,0,0,1,0-3.62,3.76,3.76,0,0,1,2.22-2.28,4.89,4.89,0,0,1,1.8-.31,5.17,5.17,0,0,1,.91.07,4.56,4.56,0,0,1,.77.19,3.79,3.79,0,0,1,.67.33,3.55,3.55,0,0,1,.6.44l-.17.27a.16.16,0,0,1-.15.09.19.19,0,0,1-.1,0,1.2,1.2,0,0,1-.27-.17,2.64,2.64,0,0,0-.47-.28,4.63,4.63,0,0,0-.73-.26,4.27,4.27,0,0,0-1.08-.11,4.08,4.08,0,0,0-1.52.26,3.28,3.28,0,0,0-1.15.77,3.47,3.47,0,0,0-.74,1.22,4.77,4.77,0,0,0-.26,1.61,4.7,4.7,0,0,0,.27,1.64,3.45,3.45,0,0,0,.73,1.22,3.07,3.07,0,0,0,1.13.77A3.83,3.83,0,0,0,151.85,283.53Z"/><path class="cls-3" d="M170.59,275.33v.52h-4.54v3.62H170V280h-3.93v4h-.62v-8.61Z"/><path class="cls-3" d="M176.15,283.94h-.63v-8.61h.63Z"/><path class="cls-3" d="M182.28,275.35s.07,0,.11.09L188,282.9c0-.12,0-.24,0-.35v-7.22h.55v8.61h-.3a.25.25,0,0,1-.22-.12l-5.6-7.48c0,.13,0,.24,0,.35v7.25h-.55v-8.61h.31A.24.24,0,0,1,182.28,275.35Z"/><path class="cls-3" d="M201.2,279.63a5.25,5.25,0,0,1-.29,1.79,3.82,3.82,0,0,1-.84,1.36,3.69,3.69,0,0,1-1.3.86,4.47,4.47,0,0,1-1.67.3H194v-8.61h3.15a4.47,4.47,0,0,1,1.67.3,3.67,3.67,0,0,1,1.3.85,4,4,0,0,1,.84,1.36A5.29,5.29,0,0,1,201.2,279.63Zm-.64,0a5,5,0,0,0-.25-1.61,3.41,3.41,0,0,0-.7-1.19,3,3,0,0,0-1.1-.74,3.73,3.73,0,0,0-1.41-.26h-2.52v7.6h2.52a3.73,3.73,0,0,0,1.41-.25,3.1,3.1,0,0,0,1.1-.74,3.55,3.55,0,0,0,.7-1.2A5,5,0,0,0,200.56,279.63Z"/><path class="cls-3" d="M212,283.41h4.09v.53h-4.71v-8.61H212Z"/><path class="cls-3" d="M227.7,279.63a5.17,5.17,0,0,1-.3,1.81,4.14,4.14,0,0,1-.84,1.39,3.72,3.72,0,0,1-1.3.89,4.63,4.63,0,0,1-3.33,0,3.81,3.81,0,0,1-1.3-.89,4.14,4.14,0,0,1-.84-1.39,5.58,5.58,0,0,1,0-3.61,4,4,0,0,1,.84-1.39,3.68,3.68,0,0,1,1.3-.89,4.1,4.1,0,0,1,1.66-.32,4.28,4.28,0,0,1,1.67.31,3.72,3.72,0,0,1,1.3.89,4.09,4.09,0,0,1,.84,1.4A5.15,5.15,0,0,1,227.7,279.63Zm-.65,0a4.83,4.83,0,0,0-.25-1.62,3.48,3.48,0,0,0-.7-1.22A3,3,0,0,0,225,276a3.63,3.63,0,0,0-1.42-.26,3.53,3.53,0,0,0-1.4.26,3.15,3.15,0,0,0-1.1.76,3.66,3.66,0,0,0-.71,1.22,5.37,5.37,0,0,0,0,3.24,3.66,3.66,0,0,0,.71,1.22,3.15,3.15,0,0,0,1.1.76,3.71,3.71,0,0,0,1.4.26,3.82,3.82,0,0,0,1.42-.26,3,3,0,0,0,1.09-.76,3.48,3.48,0,0,0,.7-1.22A4.79,4.79,0,0,0,227.05,279.63Z"/><path class="cls-3" d="M231.17,275.33h.5a.23.23,0,0,1,.14,0,.36.36,0,0,1,.08.12l2.94,7.15a3.39,3.39,0,0,1,.18.59,3.76,3.76,0,0,1,.18-.59l2.93-7.15a.31.31,0,0,1,.09-.11.16.16,0,0,1,.14-.05h.49l-3.56,8.61h-.55Z"/><path class="cls-3" d="M248.28,275.33v.52h-4.54v3.47h3.77v.51h-3.77v3.59h4.54v.52h-5.17v-8.61Z"/><path class="cls-3" d="M260.46,279.63a5.25,5.25,0,0,1-.29,1.79,3.82,3.82,0,0,1-.84,1.36,3.69,3.69,0,0,1-1.3.86,4.47,4.47,0,0,1-1.67.3h-3.14v-8.61h3.14a4.47,4.47,0,0,1,1.67.3,3.67,3.67,0,0,1,1.3.85,4,4,0,0,1,.84,1.36A5.29,5.29,0,0,1,260.46,279.63Zm-.64,0a4.73,4.73,0,0,0-.25-1.61,3.41,3.41,0,0,0-.7-1.19,3,3,0,0,0-1.1-.74,3.73,3.73,0,0,0-1.41-.26h-2.52v7.6h2.52a3.73,3.73,0,0,0,1.41-.25,3.1,3.1,0,0,0,1.1-.74,3.55,3.55,0,0,0,.7-1.2A4.73,4.73,0,0,0,259.82,279.63Z"/><path class="cls-3" d="M278.31,279.63a5.41,5.41,0,0,1-.29,1.81,4.14,4.14,0,0,1-.84,1.39,3.91,3.91,0,0,1-1.3.89,4.47,4.47,0,0,1-1.67.31,4.42,4.42,0,0,1-1.66-.31,3.72,3.72,0,0,1-1.3-.89,4.14,4.14,0,0,1-.84-1.39,5.41,5.41,0,0,1,0-3.61,4,4,0,0,1,.84-1.39,3.59,3.59,0,0,1,1.3-.89,4.06,4.06,0,0,1,1.66-.32,4.28,4.28,0,0,1,1.67.31,3.91,3.91,0,0,1,1.3.89,4.09,4.09,0,0,1,.84,1.4A5.39,5.39,0,0,1,278.31,279.63Zm-.64,0a5.1,5.1,0,0,0-.25-1.62,3.65,3.65,0,0,0-.7-1.22,3.2,3.2,0,0,0-1.09-.76,3.66,3.66,0,0,0-1.42-.26,3.58,3.58,0,0,0-1.41.26,3.11,3.11,0,0,0-1.09.76A3.36,3.36,0,0,0,271,278a5.18,5.18,0,0,0,0,3.24,3.36,3.36,0,0,0,.71,1.22,3.11,3.11,0,0,0,1.09.76,3.77,3.77,0,0,0,1.41.26,3.86,3.86,0,0,0,1.42-.26,3.2,3.2,0,0,0,1.09-.76,3.65,3.65,0,0,0,.7-1.22A5.06,5.06,0,0,0,277.67,279.63Z"/><path class="cls-3" d="M283.69,275.35s.06,0,.1.09l5.58,7.46a2.11,2.11,0,0,1,0-.35v-7.22h.54v8.61h-.29a.27.27,0,0,1-.23-.12l-5.6-7.48c0,.13,0,.24,0,.35v7.25h-.54v-8.61h.3A.3.3,0,0,1,283.69,275.35Z"/><path class="cls-3" d="M300.52,275.33v.52H296v3.47h3.78v.51H296v3.59h4.54v.52h-5.16v-8.61Z"/><path class="cls-3" d="M309.63,276.38a.19.19,0,0,1-.16.1.34.34,0,0,1-.2-.12l-.34-.24a2.27,2.27,0,0,0-.54-.26,2.5,2.5,0,0,0-.79-.11,2.28,2.28,0,0,0-.82.13,1.65,1.65,0,0,0-.6.37,1.5,1.5,0,0,0-.37.53,1.73,1.73,0,0,0-.12.64,1.39,1.39,0,0,0,.18.73,1.87,1.87,0,0,0,.49.48,3.17,3.17,0,0,0,.69.34l.8.27c.27.09.54.19.79.3a2.83,2.83,0,0,1,.7.4,1.75,1.75,0,0,1,.67,1.48,2.8,2.8,0,0,1-.18,1,2.63,2.63,0,0,1-.54.84,2.49,2.49,0,0,1-.87.55,3,3,0,0,1-1.16.21,3.26,3.26,0,0,1-2.55-1.13l.17-.27a.22.22,0,0,1,.17-.09.26.26,0,0,1,.14.07l.21.18.29.23a2.2,2.2,0,0,0,.4.23,2.26,2.26,0,0,0,.52.19,2.62,2.62,0,0,0,.66.07,2.43,2.43,0,0,0,.92-.16,1.91,1.91,0,0,0,.67-.42,1.76,1.76,0,0,0,.43-.64,2,2,0,0,0,.15-.78,1.39,1.39,0,0,0-.19-.75,1.56,1.56,0,0,0-.49-.5,3.66,3.66,0,0,0-.69-.33l-.8-.26c-.27-.09-.54-.18-.79-.29a2.83,2.83,0,0,1-.7-.4,1.85,1.85,0,0,1-.48-.62,1.93,1.93,0,0,1-.19-.92,2.15,2.15,0,0,1,.16-.83,2,2,0,0,1,.48-.71,2.25,2.25,0,0,1,.79-.49,2.71,2.71,0,0,1,1.06-.19,3.21,3.21,0,0,1,1.2.21,2.94,2.94,0,0,1,1,.65Z"/><path class="cls-3" d="M324.16,276.38a.19.19,0,0,1-.16.1c-.06,0-.12,0-.21-.12a3.18,3.18,0,0,0-.87-.5,2.55,2.55,0,0,0-.79-.11,2.37,2.37,0,0,0-.83.13,1.65,1.65,0,0,0-.6.37,1.47,1.47,0,0,0-.36.53,1.56,1.56,0,0,0-.13.64,1.3,1.3,0,0,0,.19.73,1.61,1.61,0,0,0,.49.48,2.77,2.77,0,0,0,.69.34l.8.27c.27.09.53.19.79.3a2.6,2.6,0,0,1,.69.4,1.69,1.69,0,0,1,.49.6,1.82,1.82,0,0,1,.19.88,2.61,2.61,0,0,1-.19,1,2.33,2.33,0,0,1-.54.84,2.45,2.45,0,0,1-.86.55,3.05,3.05,0,0,1-1.17.21,3.25,3.25,0,0,1-1.46-.31,3.3,3.3,0,0,1-1.08-.82l.17-.27a.21.21,0,0,1,.17-.09.3.3,0,0,1,.14.07l.21.18a2.67,2.67,0,0,0,.29.23,1.91,1.91,0,0,0,.4.23,2.35,2.35,0,0,0,.51.19,2.76,2.76,0,0,0,.67.07,2.38,2.38,0,0,0,.91-.16,1.87,1.87,0,0,0,.68-.42,1.62,1.62,0,0,0,.42-.64,2,2,0,0,0,.15-.78,1.3,1.3,0,0,0-.19-.75,1.53,1.53,0,0,0-.48-.5,3.48,3.48,0,0,0-.7-.33l-.79-.26c-.27-.09-.54-.18-.8-.29a2.6,2.6,0,0,1-.69-.4,1.87,1.87,0,0,1-.49-.62,2.06,2.06,0,0,1-.19-.92,2.16,2.16,0,0,1,.17-.83,2,2,0,0,1,.48-.71,2.21,2.21,0,0,1,.78-.49,2.76,2.76,0,0,1,1.07-.19,3.25,3.25,0,0,1,1.2.21,2.9,2.9,0,0,1,1,.65Z"/><path class="cls-3" d="M330.11,283.94h-.63v-8.61h.63Z"/><path class="cls-3" d="M336.24,275.35a.27.27,0,0,1,.1.09l5.58,7.46c0-.12,0-.24,0-.35v-7.22h.55v8.61h-.3a.25.25,0,0,1-.22-.12l-5.6-7.48c0,.13,0,.24,0,.35v7.25h-.54v-8.61h.31A.25.25,0,0,1,336.24,275.35Z"/><path class="cls-3" d="M354.17,282.49a.13.13,0,0,1,.1,0l.25.26a4.15,4.15,0,0,1-.59.52,3.85,3.85,0,0,1-.69.39,3.93,3.93,0,0,1-.82.25,5,5,0,0,1-1,.09,4.14,4.14,0,0,1-1.64-.32,3.51,3.51,0,0,1-1.28-.89,4.08,4.08,0,0,1-.83-1.39,5.17,5.17,0,0,1-.3-1.81,4.91,4.91,0,0,1,.31-1.79,4,4,0,0,1,.86-1.39,3.82,3.82,0,0,1,1.33-.9,4.54,4.54,0,0,1,1.72-.32,4.61,4.61,0,0,1,.86.07,4,4,0,0,1,.72.2,3.51,3.51,0,0,1,.64.33,3.94,3.94,0,0,1,.58.45l-.19.27a.16.16,0,0,1-.15.07.3.3,0,0,1-.14-.06l-.21-.16-.32-.21a2.61,2.61,0,0,0-.44-.2,3,3,0,0,0-.59-.16,4.42,4.42,0,0,0-.76-.06,3.73,3.73,0,0,0-1.44.27,3.2,3.2,0,0,0-1.14.77,3.62,3.62,0,0,0-.74,1.22,4.71,4.71,0,0,0-.26,1.6,4.85,4.85,0,0,0,.26,1.63,3.7,3.7,0,0,0,.73,1.22,3.11,3.11,0,0,0,1.09.76,3.58,3.58,0,0,0,1.36.26,5.13,5.13,0,0,0,.83-.06,3.46,3.46,0,0,0,.67-.18,3.32,3.32,0,0,0,.56-.3,4.79,4.79,0,0,0,.52-.42l.06,0Z"/><path class="cls-3" d="M364.55,275.33v.52H360v3.47h3.78v.51H360v3.59h4.54v.52h-5.17v-8.61Z"/><path class="cls-3" d="M377.13,275.23a3.24,3.24,0,0,1,.94.14,2.27,2.27,0,0,1,.79.44,2,2,0,0,1,.54.72,2.32,2.32,0,0,1,.2,1,2.66,2.66,0,0,1-.15.9,3.52,3.52,0,0,1-.4.8,5.19,5.19,0,0,1-.6.75l-.7.74-2.7,2.75a2.57,2.57,0,0,1,.4-.07,3.11,3.11,0,0,1,.43,0h3.72a.21.21,0,0,1,.21.21v.34h-5.56v-.21a.27.27,0,0,1,0-.14.28.28,0,0,1,.08-.11l2.94-3c.24-.25.47-.49.67-.72a4.87,4.87,0,0,0,.54-.7,3.73,3.73,0,0,0,.36-.72,2.3,2.3,0,0,0,.13-.79,2,2,0,0,0-.16-.83,1.51,1.51,0,0,0-.42-.57,1.92,1.92,0,0,0-.61-.34,2.46,2.46,0,0,0-.72-.11,2,2,0,0,0-.75.13,2.13,2.13,0,0,0-.61.34,2,2,0,0,0-.44.53,2.49,2.49,0,0,0-.24.68.24.24,0,0,1-.24.21h-.06l-.3-.05a3,3,0,0,1,.31-1,2.44,2.44,0,0,1,.57-.73,2.48,2.48,0,0,1,.81-.46A3.1,3.1,0,0,1,377.13,275.23Z"/><path class="cls-3" d="M390.05,279.63a7.1,7.1,0,0,1-.24,2,4.08,4.08,0,0,1-.67,1.37,2.7,2.7,0,0,1-1,.81,2.88,2.88,0,0,1-1.2.26,2.84,2.84,0,0,1-1.2-.26,2.78,2.78,0,0,1-1-.81,4.07,4.07,0,0,1-.66-1.37,8.12,8.12,0,0,1,0-3.92,4.07,4.07,0,0,1,.66-1.37,2.78,2.78,0,0,1,1-.81,2.84,2.84,0,0,1,1.2-.26,2.88,2.88,0,0,1,1.2.26,2.7,2.7,0,0,1,1,.81,4.08,4.08,0,0,1,.67,1.37A7,7,0,0,1,390.05,279.63Zm-.61,0a7.07,7.07,0,0,0-.2-1.79,3.57,3.57,0,0,0-.54-1.21,2,2,0,0,0-.79-.69,2.16,2.16,0,0,0-1.9,0,2,2,0,0,0-.79.69,3.57,3.57,0,0,0-.54,1.21,8.11,8.11,0,0,0,0,3.58,3.57,3.57,0,0,0,.54,1.21,2,2,0,0,0,.79.69,2.16,2.16,0,0,0,1.9,0,2,2,0,0,0,.79-.69,3.57,3.57,0,0,0,.54-1.21A7.07,7.07,0,0,0,389.44,279.63Z"/><path class="cls-3" d="M397.07,275.23a3.24,3.24,0,0,1,.94.14,2.22,2.22,0,0,1,.78.44,2.09,2.09,0,0,1,.55.72,2.47,2.47,0,0,1,.2,1,2.66,2.66,0,0,1-.15.9,3.56,3.56,0,0,1-.41.8,5.11,5.11,0,0,1-.59.75c-.22.24-.46.49-.71.74L395,283.49a2.57,2.57,0,0,1,.4-.07,3,3,0,0,1,.42,0h3.72a.21.21,0,0,1,.16.06.2.2,0,0,1,.05.15v.34h-5.55v-.21a.39.39,0,0,1,0-.14.44.44,0,0,1,.08-.11l2.94-3c.25-.25.47-.49.68-.72a5.71,5.71,0,0,0,.54-.7,3.73,3.73,0,0,0,.36-.72,2.56,2.56,0,0,0,.13-.79,2.12,2.12,0,0,0-.16-.83,1.76,1.76,0,0,0-.42-.57,1.92,1.92,0,0,0-.61-.34,2.46,2.46,0,0,0-.72-.11,2.12,2.12,0,0,0-1.36.47,1.86,1.86,0,0,0-.44.53,2,2,0,0,0-.24.68.25.25,0,0,1-.25.21h-.06l-.29-.05a3,3,0,0,1,.3-1,2.46,2.46,0,0,1,.58-.73,2.53,2.53,0,0,1,.8-.46A3.16,3.16,0,0,1,397.07,275.23Z"/><path class="cls-3" d="M407,275.23a3.29,3.29,0,0,1,.94.14,2.22,2.22,0,0,1,.78.44,2.09,2.09,0,0,1,.55.72,2.47,2.47,0,0,1,.2,1,2.66,2.66,0,0,1-.15.9,3.56,3.56,0,0,1-.41.8,5.88,5.88,0,0,1-.59.75c-.23.24-.46.49-.71.74l-2.7,2.75a2.7,2.7,0,0,1,.41-.07,3,3,0,0,1,.42,0h3.72a.21.21,0,0,1,.16.06.25.25,0,0,1,0,.15v.34h-5.55v-.21a.39.39,0,0,1,0-.14.44.44,0,0,1,.08-.11l2.94-3,.68-.72a6.9,6.9,0,0,0,.54-.7,3.18,3.18,0,0,0,.35-.72,2.3,2.3,0,0,0,.14-.79,2.12,2.12,0,0,0-.16-.83,1.65,1.65,0,0,0-.43-.57,1.72,1.72,0,0,0-.61-.34,2.36,2.36,0,0,0-.72-.11,2,2,0,0,0-.75.13,2.13,2.13,0,0,0-.61.34,2,2,0,0,0-.43.53,2,2,0,0,0-.24.68.25.25,0,0,1-.25.21h-.06l-.29-.05a3,3,0,0,1,.3-1,2.31,2.31,0,0,1,.58-.73,2.43,2.43,0,0,1,.8-.46A3.12,3.12,0,0,1,407,275.23Z"/><rect class="cls-2" y="155.59" width="500" height="12.44"/><rect class="cls-2" y="331.96" width="500" height="12.44"/></svg>